<?xml version="1.0" standalone="no"?>
<!DOCTYPE svg PUBLIC "-//W3C//DTD SVG 20010904//EN"
 "http://www.w3.org/TR/2001/REC-SVG-20010904/DTD/svg10.dtd">
<svg version="1.0" xmlns="http://www.w3.org/2000/svg"
 width="700.000000pt" height="700.000000pt" viewBox="0 0 700.000000 700.000000"
 preserveAspectRatio="xMidYMid meet">
<metadata>
Created by potrace 1.14, written by Peter Selinger 2001-2017
</metadata>
<g transform="translate(0.000000,700.000000) scale(0.100000,-0.100000)"
fill="#000000" stroke="none">
<path d="M4447 6993 c-2 -1 -1863 -7 -4129 -12 l-318 -1 5 -1357 c7 -2117 17
-5134 18 -5390 l1 -233 1830 5 c1007 3 2511 7 3341 10 831 2 1576 5 1658 5
l147 0 -2 571 -3 571 -25 27 c-33 35 -198 215 -229 249 -13 15 -51 56 -85 93
-34 36 -85 92 -115 125 -30 32 -81 88 -115 125 -34 36 -101 110 -151 164 -49
54 -101 110 -113 124 -13 14 -40 44 -61 66 -20 22 -89 96 -151 165 -63 69
-124 134 -135 146 -11 12 -60 65 -110 119 -49 55 -101 110 -114 124 -12 15
-57 64 -100 110 -42 46 -96 104 -119 130 -24 25 -75 80 -112 121 -95 105 -110
121 -224 244 -56 60 -105 114 -111 120 -59 65 -85 97 -85 104 0 4 24 32 53 63
28 31 86 93 127 139 41 46 84 93 95 104 11 12 60 66 109 121 49 55 92 102 95
105 4 3 42 45 86 94 44 50 87 97 95 106 8 9 53 58 100 109 97 106 97 107 205
226 82 91 99 110 163 180 21 22 75 83 122 135 47 52 106 118 132 145 25 28 56
61 68 75 19 22 136 152 197 218 13 14 58 63 100 111 43 47 92 101 110 119 17
19 56 61 85 95 29 33 86 94 126 136 l73 76 -3 560 -3 560 -1263 0 c-695 0
-1264 -1 -1265 -2z m900 -1152 c-6 -8 -33 -38 -58 -65 -26 -28 -57 -63 -70
-77 -13 -15 -58 -64 -100 -110 -42 -46 -192 -212 -334 -369 -142 -157 -297
-328 -345 -380 -48 -52 -109 -120 -135 -150 -27 -30 -51 -57 -54 -60 -8 -7
-102 -109 -191 -209 -41 -46 -86 -96 -100 -111 -28 -30 -167 -184 -190 -210
-31 -35 -166 -184 -180 -199 -9 -9 -58 -63 -110 -121 -52 -58 -129 -141 -172
-184 -43 -44 -78 -82 -78 -86 0 -3 39 -46 88 -95 78 -81 200 -212 338 -364 27
-30 58 -64 69 -76 42 -44 133 -144 225 -244 52 -57 104 -114 115 -125 11 -12
63 -69 115 -126 52 -57 104 -114 115 -126 11 -11 63 -67 115 -125 52 -57 106
-115 120 -130 62 -66 113 -122 210 -229 58 -63 112 -122 120 -130 8 -8 62 -67
120 -130 57 -63 107 -117 110 -120 3 -3 28 -30 55 -60 28 -30 93 -102 145
-158 52 -57 96 -107 98 -111 1 -4 -258 -8 -575 -9 l-578 -2 -110 107 c-183
178 -636 616 -700 678 -33 31 -174 168 -314 304 -140 135 -275 266 -301 291
-26 25 -121 117 -212 205 -90 88 -276 268 -413 400 -359 348 -365 353 -365
361 0 4 48 54 108 112 59 58 271 266 472 463 201 196 426 417 500 489 74 73
317 311 540 530 641 630 771 755 785 760 8 3 266 5 574 6 501 0 559 -1 548
-15z m-3287 -272 c-505 -496 -815 -797 -825 -801 -7 -2 -11 183 -13 537 l-2
540 562 2 563 2 -285 -280z m-727 -3428 c139 -136 270 -263 537 -521 134 -129
299 -289 367 -355 l124 -120 -563 -2 -563 -2 -1 544 c-1 300 1 545 3 545 3 0
46 -40 96 -89z"/>
</g>
</svg>
